<?xml version="1.0" encoding="UTF-8"?>
<svg xmlns="http://www.w3.org/2000/svg" width="128" height="128" viewBox="0 0 128 128" role="img" aria-label="RatVantage">
  <defs>
    <linearGradient id="body" x1="20" y1="18" x2="108" y2="110" gradientUnits="userSpaceOnUse">
      <stop offset="0" stop-color="#3b82f6"/>
      <stop offset="1" stop-color="#16a34a"/>
    </linearGradient>
  </defs>
  <rect x="14" y="14" width="100" height="100" rx="22" fill="#111827"/>
  <rect x="22" y="22" width="84" height="84" rx="16" fill="url(#body)"/>
  <path d="M38 45h52a8 8 0 0 1 8 8v23a8 8 0 0 1-8 8H38a8 8 0 0 1-8-8V53a8 8 0 0 1 8-8Z" fill="#f8fafc"/>
  <path d="M42 58h44M42 70h24" fill="none" stroke="#111827" stroke-width="7" stroke-linecap="round"/>
  <circle cx="88" cy="70" r="7" fill="#16a34a"/>
  <path d="M42 96h44" fill="none" stroke="#f8fafc" stroke-width="8" stroke-linecap="round"/>
  <path d="M31 31l66 66" fill="none" stroke="#93c5fd" stroke-width="5" stroke-linecap="round" opacity=".6"/>
</svg>
